<svg xmlns="http://www.w3.org/2000/svg" version="1.1" xmlns:xlink="http://www.w3.org/1999/xlink" xmlns:svgjs="http://svgjs.dev/svgjs" width="1000" height="444" viewBox="0 0 1000 444"><g transform="matrix(1,0,0,1,-0.6060606060605664,0.3232394368389464)"><svg viewBox="0 0 396 176" data-background-color="#0a1627" preserveAspectRatio="xMidYMid meet" height="444" width="1000" xmlns="http://www.w3.org/2000/svg" xmlns:xlink="http://www.w3.org/1999/xlink"><defs></defs><g id="tight-bounds" transform="matrix(1,0,0,1,0.2400000000000091,-0.12813094793615676)"><svg viewBox="0 0 395.52 176.2562618958723" height="176.2562618958723" width="395.52"><g><svg viewBox="0 0 771.2806608009593 343.7071352785076" height="176.2562618958723" width="395.52"><g transform="matrix(1,0,0,1,375.7606608009593,116.92947501307994)"><svg viewBox="0 0 395.52 109.84818525234775" height="109.84818525234775" width="395.52"><g><svg viewBox="0 0 395.52 109.84818525234775" height="109.84818525234775" width="395.52"><g></g><g><svg viewBox="0 0 395.52 67.88814941470471" height="67.88814941470471" width="395.52"><g transform="matrix(1,0,0,1,0,0)"><svg width="395.52" viewBox="1.2000000476837158 -31.860000610351562 185.60000610351562 31.860000610351562" height="67.88814941470471" data-palette-color="#fe0039"><path d="M22.71-22.75L22.71-22.75Q22.71-18.14 19.82-15.89 16.94-13.65 11.74-13.65L11.74-13.65 4.54-13.65 4.54 0 1.2 0 1.2-31.86 11.69-31.86Q16.94-31.86 19.82-29.58 22.71-27.29 22.71-22.75ZM19.36-22.75L19.36-22.75Q19.36-26.05 17.29-27.53 15.21-29 11.74-29L11.74-29 4.54-29 4.54-16.5 11.74-16.5Q15.21-16.5 17.29-17.98 19.36-19.46 19.36-22.75ZM40.74-13.79L50.34 0 46.09 0 36.79-13.65 31.83-13.65 31.83 0 28.49 0 28.49-31.86 38.99-31.86Q44.24-31.86 47.12-29.58 50-27.29 50-22.75L50-22.75Q50-20.75 49.29-19.15 48.58-17.55 47.36-16.43 46.14-15.31 44.44-14.62 42.75-13.94 40.74-13.79L40.74-13.79ZM46.53-22.75L46.53-22.75Q46.53-26 44.52-27.5 42.5-29 38.99-29L38.99-29 31.83-29 31.83-16.5 38.99-16.5Q42.5-16.5 44.52-17.98 46.53-19.46 46.53-22.75ZM77.34-2.86L77.34 0 63.69 0 63.69-2.86 68.84-2.86 68.84-9.11 54.58-9.11 54.58-12.01 67.94-31.86 72.19-31.86 72.19-12.01 77.34-12.01 77.34-9.11 72.19-9.11 72.19-2.86 77.34-2.86ZM58.12-12.01L68.84-12.01 68.84-27.91 58.12-12.01ZM91.98-17.94L104.48 0 100.38 0 89.79-15.6 86.42-11.84 86.42 0 83.07 0 83.07-31.86 86.42-31.86 86.42-16.36 100.07-31.86 104.48-31.86 91.98-17.94ZM130.73-31.86L130.73 0 127.36 0 127.36-14.75 113.71-14.75 113.71 0 110.37 0 110.37-31.86 113.71-31.86 113.71-17.6 127.36-17.6 127.36-31.86 130.73-31.86ZM159.22-2.86L159.22 0 145.57 0 145.57-2.86 150.72-2.86 150.72-9.11 136.46-9.11 136.46-12.01 149.82-31.86 154.06-31.86 154.06-12.01 159.22-12.01 159.22-9.11 154.06-9.11 154.06-2.86 159.22-2.86ZM140-12.01L150.72-12.01 150.72-27.91 140-12.01ZM177.21-13.79L186.8 0 182.55 0 173.25-13.65 168.3-13.65 168.3 0 164.95 0 164.95-31.86 175.45-31.86Q180.7-31.86 183.58-29.58 186.46-27.29 186.46-22.75L186.46-22.75Q186.46-20.75 185.75-19.15 185.04-17.55 183.82-16.43 182.6-15.31 180.91-14.62 179.21-13.94 177.21-13.79L177.21-13.79ZM182.99-22.75L182.99-22.75Q182.99-26 180.98-27.5 178.96-29 175.45-29L175.45-29 168.3-29 168.3-16.5 175.45-16.5Q178.96-16.5 180.98-17.98 182.99-19.46 182.99-22.75Z" opacity="1" transform="matrix(1,0,0,1,0,0)" fill="#fe0039" class="undefined-text-0" data-fill-palette-color="primary" id="text-0"></path></svg></g></svg></g><g transform="matrix(1,0,0,1,0,83.91491217593054)"><svg viewBox="0 0 395.52 25.9332730764172" height="25.9332730764172" width="395.52"><g transform="matrix(1,0,0,1,8,0)"><svg width="379.52" viewBox="2.319999933242798 -38.70000076293945 577.72998046875 39.47999954223633" height="25.9332730764172" data-palette-color="#c1c1c1"><path d="M20.39 0.2L20.39 0.2Q19.82 0 17.97 0L17.97 0 5.42 0Q4.15 0 3.39-0.4 2.64-0.81 2.64-1.88L2.64-1.88Q2.64-2.66 3-3.13L3-3.13Q3.93-2.88 4.79-2.88 5.64-2.88 6.13-3.06 6.62-3.25 6.98-3.71L6.98-3.71Q7.71-4.69 7.71-6.96L7.71-6.96 7.71-31.47Q7.71-33.74 5.03-34.3L5.03-34.3Q3.34-34.64 2.83-35.08 2.32-35.52 2.32-36.04L2.32-36.04Q2.32-37.16 2.71-37.55L2.71-37.55Q3.15-37.43 3.52-37.43L3.52-37.43 9.57-37.43 18.26-37.67Q29.69-37.67 32.71-31.45L32.71-31.45Q33.81-29.2 33.81-26.95 33.81-24.71 33.5-23.12 33.18-21.53 32.41-20.03 31.64-18.53 30.37-17.2 29.1-15.87 27.2-14.87L27.2-14.87Q23.07-12.72 16.65-12.72L16.65-12.72 15.72-12.72Q15.04-12.72 15.04-13.6L15.04-13.6Q15.04-15.53 16.09-15.77L16.09-15.77Q25.27-15.58 27.2-21.24L27.2-21.24Q27.78-23.02 27.78-25.05 27.78-27.08 27.34-28.77 26.9-30.47 25.76-31.79L25.76-31.79Q23.22-34.67 17.36-34.67L17.36-34.67Q14.99-34.67 14.21-33.64L14.21-33.64Q13.48-32.74 13.48-29.98L13.48-29.98 13.48-5.59Q13.6-3.69 16.5-3.27L16.5-3.27Q19.12-2.91 19.75-2.59 20.39-2.27 20.58-1.97 20.78-1.66 20.78-1.22L20.78-1.22Q20.78-0.29 20.39 0.2ZM110.43-4.36Q108.11-6.67 106.8-9.95 105.5-13.23 105.5-16.91 105.5-20.58 106.23-23.39 106.96-26.2 108.26-28.48 109.55-30.76 111.33-32.52 113.12-34.28 115.21-35.47L115.21-35.47Q119.46-37.89 124.42-37.89L124.42-37.89Q131.94-37.89 136.67-33.11L136.67-33.11Q141.63-28.13 141.63-20L141.63-20Q141.63-13.87 138.87-8.98L138.87-8.98Q136.36-4.54 131.94-2L131.94-2Q127.69 0.46 123.38 0.46 119.07 0.46 115.91-0.79 112.75-2.05 110.43-4.36ZM114.53-29.88Q113.09-27.86 112.41-24.98 111.72-22.09 111.72-18.79 111.72-15.48 112.36-12.73 112.99-9.99 114.38-7.91L114.38-7.91Q117.41-3.39 123.37-3.39L123.37-3.39Q129.37-3.39 132.48-7.32L132.48-7.32Q135.45-11.16 135.45-18.24L135.45-18.24Q135.45-29.1 129.01-32.81L129.01-32.81Q126.71-34.11 123.56-34.11 120.41-34.11 118.19-33.01 115.97-31.91 114.53-29.88ZM229.87 0.2L229.87 0.2Q229.31 0 227.48 0L227.48 0 217.51 0Q216.24 0 215.49-0.4 214.73-0.81 214.73-1.88L214.73-1.88Q214.73-2.66 215.1-3.13L215.1-3.13Q216.02-2.88 216.88-2.88 217.73-2.88 218.22-3.06 218.71-3.25 219.08-3.71L219.08-3.71Q219.81-4.69 219.81-6.96L219.81-6.96 219.81-31.93Q219.74-33.64 218.69-34.11L218.69-34.11Q218.37-34.25 217.82-34.38 217.27-34.5 216.75-34.63 216.22-34.77 215.85-34.96L215.85-34.96Q215.12-35.35 215.12-35.99L215.12-35.99Q215.12-37.13 215.51-37.62L215.51-37.62Q216.07-37.43 217.93-37.43L217.93-37.43 221.1-37.43 229.67-37.67 230.72-37.7Q238.24-37.7 241.98-35.02 245.71-32.35 245.71-27.49L245.71-27.49Q245.71-23.85 243.34-20.8L243.34-20.8Q240.71-17.41 236.07-16.21L236.07-16.21Q237.34-15.33 238.95-12.99L238.95-12.99 241.54-9.2Q245.18-3.91 247.57-3.91L247.57-3.91Q248.47-3.91 248.94-4.08L248.94-4.08 249.55-4.32Q249.74-4.39 249.98-4.39 250.23-4.39 250.5-4.02 250.77-3.64 250.77-3.15 250.77-2.66 250.35-1.99 249.94-1.32 249.18-0.78L249.18-0.78Q247.47 0.46 245.44 0.46 243.42 0.46 242.11-0.22 240.81-0.9 239.72-2.01 238.63-3.13 237.74-4.54 236.85-5.96 236.07-7.45L236.07-7.45 234.63-10.35Q233.09-13.53 232.17-14.44 231.26-15.36 230.5-15.36L230.5-15.36 228.04-15.36Q227.43-15.36 227.43-16.24L227.43-16.24Q227.43-17.46 228.35-18.14L228.35-18.14Q228.67-18.36 230.26-18.4 231.85-18.43 233.84-19.07 235.82-19.7 237.12-20.8L237.12-20.8Q239.63-22.97 239.63-26.9L239.63-26.9Q239.63-30.2 237.44-32.3L237.44-32.3Q234.95-34.67 230.5-34.72L230.5-34.72Q227.57-34.72 226.6-33.84L226.6-33.84Q225.62-33.01 225.57-30.69L225.57-30.69 225.57-5.76Q225.57-3.83 226.65-3.32L226.65-3.32Q226.99-3.17 227.55-3.05 228.11-2.93 228.63-2.8 229.16-2.66 229.53-2.47L229.53-2.47Q230.26-2.08 230.26-1.42L230.26-1.42Q230.26-0.29 229.87 0.2ZM375.84-34.3L375.84-34.3Q374.92-34.55 374.24-34.55 373.57-34.55 373.1-34.07 372.62-33.59 372.18-32.86L372.18-32.86Q371.5-31.64 370.84-29.39L370.84-29.39 367.89-19.97 362.61-4.1Q361.88-1.95 360.07-0.66L360.07-0.66Q358.46 0.46 357.12 0.46L357.12 0.46Q356.09 0.46 355.65 0.32L355.65 0.32 347.84-19.87 347.08-22.31Q340.61-5.62 340.07-4.28 339.52-2.95 338.83-2.1 338.15-1.25 337.37-0.68L337.37-0.68Q335.81 0.46 334.46 0.46L334.46 0.46Q333.27 0.46 333 0.32L333 0.32 323.06-30.86Q322.87-31.4 322.69-31.99 322.52-32.59 322.3-33.11L322.3-33.11Q321.79-34.33 321.21-34.48 320.62-34.64 320.18-34.75 319.74-34.86 319.4-35.03L319.4-35.03Q318.64-35.4 318.64-36.04L318.64-36.04Q318.64-37.11 319.01-37.62L319.01-37.62Q319.59-37.43 321.43-37.43L321.43-37.43 331.63-37.43Q334.41-37.43 334.41-35.55L334.41-35.55Q334.41-34.74 334.02-34.3L334.02-34.3Q333.14-34.55 332-34.55L332-34.55Q329.04-34.55 329.04-32.15L329.04-32.15Q329.04-31.37 329.29-30.49L329.29-30.49 336.46-5.69Q338.39-10.57 339.39-13.31L339.39-13.31 345.38-30.4Q345.69-31.42 346.94-32.03L346.94-32.03Q348.01-32.59 349.45-32.54L349.45-32.54 358.93-5.69Q362-15.26 362.83-18.19L362.83-18.19 365.47-27.59Q366.49-31.45 366.49-32.3 366.49-33.15 365.94-33.67 365.39-34.18 364.63-34.34 363.86-34.5 363.28-34.63 362.71-34.77 362.32-34.96L362.32-34.96Q361.54-35.35 361.54-36.28L361.54-36.28Q361.54-37.11 361.9-37.62L361.9-37.62Q362.47-37.43 364.32-37.43L364.32-37.43 373.45-37.43Q376.23-37.43 376.23-35.55L376.23-35.55Q376.23-34.74 375.84-34.3ZM466.96 0.68L466.96 0.68Q466.28 0.78 465.33 0.78 464.37 0.78 463.86 0.44L463.86 0.44 463.86-8.52 447.11-8.52Q446.04-8.52 445.09-10.18L445.09-10.18Q444.16-11.79 444.62-12.48L444.62-12.48Q448.11-17.63 449.68-20.21L449.68-20.21 452.66-25.24Q457.49-33.81 458.76-38.7L458.76-38.7Q461.84-38.7 463.45-37.65L463.45-37.65Q464.69-36.84 464.13-34.81L464.13-34.81Q463.32-31.76 459.37-25.54L459.37-25.54Q456.15-20.68 454.66-18.7L454.66-18.7 452-15.26Q450.82-13.79 449.85-12.7L449.85-12.7 463.86-12.7 463.86-20.87Q463.86-21.9 465.5-22.83L465.5-22.83Q467.04-23.68 468.27-23.68 469.5-23.68 469.5-22.95L469.5-22.95 469.5-12.7 475.92-12.7Q476.39-12.7 476.39-12.05 476.39-11.4 476.24-10.83 476.09-10.25 475.85-9.74L475.85-9.74Q475.21-8.52 474.55-8.52L474.55-8.52 469.5-8.52 469.5-0.51Q469.5 0.27 466.96 0.68ZM580.05-7.59L580.05-7.59Q580.05-2.1 578.59 0L578.59 0 551.95 0Q550.02 0 549.29-0.98L549.29-0.98Q549.05-1.32 549.05-1.73L549.05-1.73Q549.05-2.66 549.44-3.15L549.44-3.15Q550.27-2.91 551.61-2.91L551.61-2.91Q554.61-2.91 554.61-6.59L554.61-6.59 554.61-31.67Q554.61-33.35 553.2-33.94L553.2-33.94Q552.78-34.13 552.17-34.3L552.17-34.3 550.95-34.62Q549.78-34.91 549.5-35.34 549.22-35.77 549.22-36.21L549.22-36.21Q549.22-37.13 549.61-37.62L549.61-37.62Q550.17-37.43 552.03-37.43L552.03-37.43 562.67-37.43Q563.94-37.43 564.7-37.02 565.45-36.62 565.45-35.55L565.45-35.55Q565.45-34.72 565.09-34.3L565.09-34.3Q564.16-34.55 563.32-34.55 562.47-34.55 562-34.36 561.52-34.18 561.16-33.74L561.16-33.74Q560.42-32.81 560.37-30.69L560.37-30.69 560.37-6.01Q560.42-4.3 561.38-3.71L561.38-3.71Q562.18-3.2 564.33-3.2L564.33-3.2 566.16-3.22 568.26-3.25Q573.58-3.25 575.22-5.62L575.22-5.62Q576.02-6.79 576.31-8.56 576.59-10.33 576.81-12.67L576.81-12.67Q577.2-12.92 577.86-12.92L577.86-12.92Q579.1-12.92 579.54-12.62L579.54-12.62Q580.05-10.62 580.05-7.59Z" opacity="1" transform="matrix(1,0,0,1,0,0)" fill="#c1c1c1" class="undefined-text-1" data-fill-palette-color="secondary" id="text-1"></path></svg></g></svg></g></svg></g></svg></g><g><svg viewBox="0 0 343.7071352785076 343.7071352785076" height="343.7071352785076" width="343.7071352785076"><g><svg></svg></g><g id="icon-0"><svg viewBox="0 0 343.7071352785076 343.7071352785076" height="343.7071352785076" width="343.7071352785076"><g><path d="M0 171.854c0-94.912 76.941-171.854 171.854-171.854 94.912 0 171.854 76.941 171.853 171.854 0 94.912-76.941 171.854-171.853 171.853-94.912 0-171.854-76.941-171.854-171.853zM171.854 337.585c91.531 0 165.731-74.2 165.731-165.731 0-91.531-74.2-165.731-165.731-165.732-91.531 0-165.731 74.2-165.732 165.732 0 91.531 74.2 165.731 165.732 165.731z" data-fill-palette-color="tertiary" fill="#fe0039" stroke="transparent"></path></g><g transform="matrix(1,0,0,1,69.91517804535287,69.91517804535287)"><svg viewBox="0 0 203.87677918780187 203.87677918780187" height="203.87677918780187" width="203.87677918780187"><g><svg xmlns="http://www.w3.org/2000/svg" xmlns:xlink="http://www.w3.org/1999/xlink" version="1.1" x="0" y="0" viewBox="0 0 64 64" style="enable-background:new 0 0 64 64;" xml:space="preserve" height="203.87677918780187" width="203.87677918780187" class="icon-x-0" data-fill-palette-color="accent" id="x-0"><g fill="#2ecc40" data-fill-palette-color="accent"><path d="M35 45v2h2v-2h2v2h2v-2h1.4l2.6-2.6V41h2v-2h-2v-2h2v-2h-2v-2h2v-2h-2v-2h2v-2h-2v-2h2v-2h-2v-4h-4v-2h-2v2h-2v-2h-2v2h-2v-2h-2v2h-2v-2h-2v2h-2v-2h-2v2h-4v4h-2v2h2v2h-2v2h2v2h-2v2h2v2h-2v2h2v2h-2v2h2v4h4v2h2v-2h2v2h2v-2h2v2h2v-2H35zM21 21h22v20.6L41.6 43H21V21z" fill="#2ecc40" data-fill-palette-color="accent"></path><polygon points="23,56.6 19,60.6 19,64 21,64 21,61.4 25,57.4 25,49 23,49  " fill="#2ecc40" data-fill-palette-color="accent"></polygon><rect x="27" y="49" width="2" height="7" fill="#2ecc40" data-fill-palette-color="accent"></rect><polygon points="31,58 27,58 27,64 29,64 29,60 33,60 33,49 31,49  " fill="#2ecc40" data-fill-palette-color="accent"></polygon><polygon points="41,53 39,53 39,56 37,56 37,49 35,49 35,58 39,58 39,64 41,64 41,58 51,58 51,56 41,56  " fill="#2ecc40" data-fill-palette-color="accent"></polygon><rect x="31" y="4" width="2" height="11" fill="#2ecc40" data-fill-palette-color="accent"></rect><polygon points="27,15 29,15 29,4 19,4 19,6 27,6  " fill="#2ecc40" data-fill-palette-color="accent"></polygon><rect x="23" y="13" width="2" height="2" fill="#2ecc40" data-fill-palette-color="accent"></rect><polygon points="56.4,39 49,39 49,41 55.6,41 57.6,43 64,43 64,41 58.4,41  " fill="#2ecc40" data-fill-palette-color="accent"></polygon><polygon points="58.4,35 53,35 53,37 57.6,37 59.6,39 64,39 64,37 60.4,37  " fill="#2ecc40" data-fill-palette-color="accent"></polygon><rect x="49" y="31" width="11" height="2" fill="#2ecc40" data-fill-palette-color="accent"></rect><polygon points="59.6,21 57.6,23 55,23 55,4 43,4 43,0 41,0 41,4 35,4 35,15 37,15 37,6 41,6 41,7.6 39,9.6 39,15 41,15 41,10.4    43,8.4 43,6 53,6 53,23 49,23 49,25 53,25 53,27 49,27 49,29 55,29 55,25 58.4,25 60.4,23 64,23 64,21  " fill="#2ecc40" data-fill-palette-color="accent"></polygon><polygon points="15,39 8.6,39 6.6,41 0,41 0,43 7.4,43 9.4,41 15,41  " fill="#2ecc40" data-fill-palette-color="accent"></polygon><polygon points="5,33 15,33 15,31 7,31 7,29 15,29 15,27 7,27 7,25 15,25 15,23 7,23 7,13 5,13 5,23 0,23 0,25 5,25 5,27 0,27    0,29 5,29  " fill="#2ecc40" data-fill-palette-color="accent"></polygon><rect x="62" y="31" width="2" height="2" fill="#2ecc40" data-fill-palette-color="accent"></rect><rect x="49" y="35" width="2" height="2" fill="#2ecc40" data-fill-palette-color="accent"></rect><rect x="57" y="27" width="7" height="2" fill="#2ecc40" data-fill-palette-color="accent"></rect><rect x="49" y="8" width="2" height="2" fill="#2ecc40" data-fill-palette-color="accent"></rect><rect x="35" y="62" width="2" height="2" fill="#2ecc40" data-fill-palette-color="accent"></rect><rect x="53" y="56" width="2" height="2" fill="#2ecc40" data-fill-palette-color="accent"></rect><rect x="31" y="62" width="2" height="2" fill="#2ecc40" data-fill-palette-color="accent"></rect><rect x="23" y="62" width="2" height="2" fill="#2ecc40" data-fill-palette-color="accent"></rect><rect x="39" y="49" width="2" height="2" fill="#2ecc40" data-fill-palette-color="accent"></rect><rect x="15" y="47" width="2" height="2" fill="#2ecc40" data-fill-palette-color="accent"></rect><rect x="11" y="47" width="2" height="2" fill="#2ecc40" data-fill-palette-color="accent"></rect><rect x="7" y="47" width="2" height="2" fill="#2ecc40" data-fill-palette-color="accent"></rect><rect x="11" y="51" width="2" height="2" fill="#2ecc40" data-fill-palette-color="accent"></rect><rect x="15" y="55" width="2" height="2" fill="#2ecc40" data-fill-palette-color="accent"></rect><rect x="15" y="51" width="2" height="2" fill="#2ecc40" data-fill-palette-color="accent"></rect><rect x="13" y="35" width="2" height="2" fill="#2ecc40" data-fill-palette-color="accent"></rect><rect x="9" y="35" width="2" height="2" fill="#2ecc40" data-fill-palette-color="accent"></rect><rect x="5" y="35" width="2" height="2" fill="#2ecc40" data-fill-palette-color="accent"></rect><rect x="5" y="9" width="2" height="2" fill="#2ecc40" data-fill-palette-color="accent"></rect><rect x="13" y="19" width="2" height="2" fill="#2ecc40" data-fill-palette-color="accent"></rect><rect x="13" y="15" width="2" height="2" fill="#2ecc40" data-fill-palette-color="accent"></rect><rect x="31" y="0" width="2" height="2" fill="#2ecc40" data-fill-palette-color="accent"></rect><rect x="23" y="0" width="2" height="2" fill="#2ecc40" data-fill-palette-color="accent"></rect><rect x="19" y="0" width="2" height="2" fill="#2ecc40" data-fill-palette-color="accent"></rect><rect x="35" y="0" width="2" height="2" fill="#2ecc40" data-fill-palette-color="accent"></rect><path d="M45 51h6v-6h-6V51zM47 47h2v2h-2V47z" fill="#2ecc40" data-fill-palette-color="accent"></path><path d="M30 29h-6v6h6v-2h4v2h2v-2h2v2h2v-4H30V29zM28 33h-2v-2h2V33z" fill="#2ecc40" data-fill-palette-color="accent"></path></g></svg></g></svg></g></svg></g></svg></g></svg></g></svg><rect width="395.52" height="176.2562618958723" fill="none" stroke="none" visibility="hidden"></rect></g></svg></g></svg>